<svg width="25" height="32" viewBox="0 0 25 32" fill="none" xmlns="http://www.w3.org/2000/svg">
<path fill-rule="evenodd" clip-rule="evenodd" d="M20.3076 9.69258C20.5915 9.6459 20.8816 9.7372 21.0883 9.93813C23.4922 12.2756 24.8161 15.404 24.8161 18.7471C24.8161 25.5263 19.3011 31.0417 12.5222 31.0417C6.91467 31.0417 2.02293 27.2452 0.626353 21.8095C0.36171 20.7782 0.227539 19.7479 0.227539 18.7471C0.227539 16.7824 0.686496 14.8938 1.59168 13.1338C2.48249 11.4035 3.79237 9.88841 5.37986 8.75181C5.38908 8.7452 5.39848 8.73877 5.40793 8.73247C5.46645 8.69388 5.52895 8.64816 5.59513 8.59972L5.60188 8.59478C5.60863 8.58985 5.61537 8.58492 5.62211 8.57998C5.64854 8.56064 5.675 8.54127 5.70162 8.52209C8.22576 6.71585 9.81107 3.91578 10.0535 0.838043C10.0774 0.534295 10.2518 0.26274 10.5181 0.114625C10.7845 -0.0334295 11.107 -0.0383404 11.3777 0.101529C14.487 1.70861 16.7697 4.57275 17.6402 7.95952C17.905 8.99063 18.0391 10.0209 18.0391 11.022C18.0391 11.5438 18.0051 12.0642 17.9375 12.5815C18.6156 11.8654 19.1919 11.0553 19.6457 10.1738C19.7776 9.91763 20.0232 9.73908 20.3076 9.69258ZM12.0519 22.5757C14.1299 22.5757 15.8145 20.8911 15.8145 18.813C15.8145 16.735 14.1299 15.0504 12.0519 15.0504C9.97383 15.0504 8.28924 16.735 8.28924 18.813C8.28924 20.8911 9.97383 22.5757 12.0519 22.5757Z" fill="#CBC8FF"/>
</svg>
